<svg xmlns="http://www.w3.org/2000/svg" xmlns:xlink="http://www.w3.org/1999/xlink" width="1366" zoomAndPan="magnify" viewBox="0 0 1024.5 996.75" height="1329" preserveAspectRatio="xMidYMid meet" version="1.0"><defs><clipPath id="fdb20b78b2"><path d="M 788 161 L 1024 161 L 1024 463 L 788 463 Z M 788 161 " clip-rule="nonzero"/></clipPath><clipPath id="05f9f78b5f"><path d="M 266 904.097656 L 769 904.097656 L 769 996.382812 L 266 996.382812 Z M 266 904.097656 " clip-rule="nonzero"/></clipPath></defs><path fill="#7b3b00" d="M 241.195312 500.058594 C 256.4375 504.273438 271.925781 495.523438 281.566406 484.519531 C 292.148438 472.449219 298.269531 461.371094 301.21875 450.144531 C 304.070312 439.167969 303.226562 429.921875 300.078125 421.992188 C 314.503906 434.308594 323.699219 450.441406 317.328125 471.285156 C 313.882812 482.609375 305.929688 494.582031 293.710938 506.847656 C 283.351562 517.234375 268.804688 524.195312 253.636719 522.089844 C 240.351562 520.230469 220.179688 508.65625 220.203125 493.664062 C 220.226562 488.433594 223.351562 483.726562 227.265625 479.214844 C 225.234375 489.226562 230.042969 496.960938 241.195312 500.058594 " fill-opacity="1" fill-rule="nonzero"/><path fill="#cd6200" d="M 236.882812 429.921875 C 213.214844 412.773438 184.070312 405.140625 158.21875 391.757812 C 134.550781 379.488281 112.890625 362.835938 93.832031 344.691406 C 55.046875 307.742188 24.292969 259.585938 18.144531 206.476562 C 16.832031 195.078125 16.683594 183.527344 17.824219 172.101562 C 18.171875 168.558594 18.714844 164.988281 19.3125 161.398438 C 31.007812 128.507812 56.660156 98.027344 91.726562 89.972656 C 125.507812 82.191406 160.300781 96.265625 190.339844 112.796875 C 190.390625 113.988281 196.957031 115.945312 197.007812 117.132812 C 197.625 131.261719 189.324219 154.160156 189.941406 168.285156 C 188.703125 167.46875 187.390625 166.726562 186.101562 166.082031 C 161.195312 153.714844 107.859375 137.902344 90.933594 168.832031 C 89.941406 170.640625 89.125 172.425781 88.382812 174.234375 C 86.125 176.984375 84.144531 180.109375 82.507812 183.652344 C 71.230469 208.410156 71.007812 234.0625 81.863281 259.910156 C 109.523438 325.707031 199.386719 375.398438 248.132812 394.382812 L 252.742188 396.144531 C 267.242188 401.742188 286.101562 410.09375 300.078125 421.992188 C 303.226562 429.921875 304.070312 439.167969 301.21875 450.144531 C 298.269531 461.371094 292.148438 472.449219 281.566406 484.519531 C 271.925781 495.523438 256.4375 504.273438 241.195312 500.058594 C 230.042969 496.960938 225.234375 489.226562 227.265625 479.214844 C 234.007812 471.433594 243.054688 464.148438 242.832031 455.523438 C 245.308594 452.003906 246.820312 448.039062 245.753906 442.535156 C 244.761719 437.429688 241.195312 433.070312 236.882812 429.921875 " fill-opacity="1" fill-rule="nonzero"/><path fill="#7b3b00" d="M 12.445312 188.808594 C 13.734375 180.132812 15.839844 171.484375 18.765625 162.882812 C 18.9375 162.386719 19.136719 161.890625 19.3125 161.398438 C 18.714844 164.988281 18.171875 168.558594 17.824219 172.101562 C 16.683594 183.527344 16.832031 195.078125 18.144531 206.476562 C 24.292969 259.585938 55.046875 307.742188 93.832031 344.691406 C 112.890625 362.835938 134.550781 379.488281 158.21875 391.757812 C 184.070312 405.140625 213.214844 412.773438 236.882812 429.921875 C 241.195312 433.070312 244.613281 437.457031 245.753906 442.535156 C 246.597656 446.203125 248.480469 453.09375 241.167969 462.535156 C 242.335938 459.539062 242.507812 459.214844 242.832031 455.523438 C 242.757812 452.820312 241.863281 449.996094 239.609375 446.972656 C 233.957031 439.390625 223.277344 435.101562 214.304688 432.25 C 183.398438 422.460938 155.59375 413.019531 128.53125 396.539062 C 58.417969 353.835938 0.105469 270.988281 12.445312 188.808594 " fill-opacity="1" fill-rule="nonzero"/><path fill="#7b3b00" d="M 182.410156 108.507812 C 191.828125 112.847656 198.121094 117.40625 199.359375 118.25 C 204.566406 130.394531 211.554688 187.070312 200.375 180.703125 C 199.558594 179.6875 198.320312 178.867188 196.066406 177.355469 C 183.5 168.957031 142.484375 159.636719 135.320312 158.792969 C 116.882812 156.636719 99.261719 160.925781 88.382812 174.234375 C 89.125 172.425781 89.941406 170.640625 90.933594 168.832031 C 97.921875 156.066406 111.679688 150.195312 125.53125 148.507812 C 133.117188 147.59375 140.796875 147.765625 148.382812 148.558594 C 156.335938 149.402344 164.09375 152.226562 171.976562 152.96875 C 174.503906 153.195312 177.179688 152.847656 179.3125 151.457031 C 188.503906 145.585938 187.710938 124.222656 186.375 114.953125 C 186.003906 112.324219 184.589844 110.167969 182.410156 108.507812 " fill-opacity="1" fill-rule="nonzero"/><path fill="#ffa445" d="M 27.886719 184.46875 C 38.34375 155.945312 60.699219 129.722656 91.15625 122.734375 C 114.703125 117.332031 138.816406 123.972656 160.945312 134.210938 C 168.40625 137.65625 176.808594 131.980469 176.460938 123.800781 C 176.289062 119.933594 174.105469 116.414062 170.6875 114.605469 C 145.582031 101.421875 117.128906 91.136719 89.472656 97.480469 C 59.011719 104.496094 36.660156 130.714844 26.199219 159.242188 C 25.929688 159.960938 24.167969 168.433594 23.894531 171.1875 C 22.878906 181.222656 22.210938 182.265625 23.351562 192.277344 C 23.574219 194.160156 25.605469 196.859375 26.175781 194.953125 C 26.96875 192.300781 27.613281 185.1875 27.886719 184.46875 " fill-opacity="1" fill-rule="nonzero"/><path fill="#ffa445" d="M 196.214844 396.390625 C 214.304688 394.976562 245.0625 402.363281 257.03125 420.652344 C 265.136719 433.019531 268.257812 452.226562 257.949219 464.867188 C 256.511719 466.601562 252.398438 472.003906 245.582031 469.871094 C 241.589844 468.609375 244.886719 461.621094 245.707031 460.058594 C 258.59375 434.753906 233.140625 417.753906 214.527344 409.773438 C 207.441406 406.726562 200.054688 405.039062 192.867188 402.289062 C 192.320312 402.066406 191.753906 401.867188 191.332031 401.421875 C 190.910156 401 190.960938 400.378906 190.984375 399.785156 C 191.035156 397.035156 195.121094 396.464844 196.214844 396.390625 " fill-opacity="1" fill-rule="nonzero"/><path fill="#7b3b00" d="M 793.957031 500.058594 C 778.714844 504.273438 763.25 495.523438 753.585938 484.519531 C 743.003906 472.449219 736.882812 461.371094 733.957031 450.144531 C 731.082031 439.167969 731.925781 429.921875 735.097656 421.992188 C 720.648438 434.308594 711.480469 450.441406 717.824219 471.285156 C 721.269531 482.609375 729.222656 494.582031 741.441406 506.847656 C 751.800781 517.234375 766.347656 524.195312 781.515625 522.089844 C 794.800781 520.230469 815 508.65625 814.949219 493.664062 C 814.925781 488.433594 811.828125 483.726562 807.886719 479.214844 C 809.917969 489.226562 805.109375 496.960938 793.957031 500.058594 " fill-opacity="1" fill-rule="nonzero"/><path fill="#cd6200" d="M 798.269531 429.921875 C 821.964844 412.773438 851.082031 405.140625 876.933594 391.757812 C 900.625 379.488281 922.261719 362.835938 941.320312 344.691406 C 980.105469 307.742188 1010.859375 259.585938 1017.007812 206.476562 C 1018.320312 195.078125 1018.46875 183.527344 1017.328125 172.101562 C 1016.980469 168.558594 1016.4375 164.988281 1015.839844 161.398438 C 1004.144531 128.507812 978.492188 98.027344 943.425781 89.972656 C 909.644531 82.191406 874.875 96.265625 844.835938 112.796875 C 844.761719 113.988281 838.222656 115.945312 838.144531 117.132812 C 837.527344 131.261719 845.828125 154.160156 845.210938 168.285156 C 846.449219 167.46875 847.761719 166.726562 849.050781 166.082031 C 873.957031 153.714844 927.316406 137.902344 944.21875 168.832031 C 945.210938 170.640625 946.027344 172.425781 946.769531 174.234375 C 949.027344 176.984375 951.035156 180.109375 952.644531 183.652344 C 963.945312 208.410156 964.167969 234.0625 953.289062 259.910156 C 925.632812 325.707031 835.765625 375.398438 787.042969 394.382812 L 782.433594 396.144531 C 767.9375 401.742188 749.050781 410.09375 735.097656 421.992188 C 731.925781 429.921875 731.082031 439.167969 733.957031 450.144531 C 736.882812 461.371094 743.003906 472.449219 753.585938 484.519531 C 763.25 495.523438 778.714844 504.273438 793.957031 500.058594 C 805.109375 496.960938 809.917969 489.226562 807.886719 479.214844 C 801.144531 471.433594 792.097656 464.148438 792.324219 455.523438 C 789.84375 452.003906 788.332031 448.039062 789.398438 442.535156 C 790.390625 437.429688 793.957031 433.070312 798.269531 429.921875 " fill-opacity="1" fill-rule="nonzero"/><g clip-path="url(#fdb20b78b2)"><path fill="#7b3b00" d="M 1022.707031 188.808594 C 1021.417969 180.132812 1019.335938 171.484375 1016.386719 162.882812 C 1016.214844 162.386719 1016.015625 161.890625 1015.839844 161.398438 C 1016.4375 164.988281 1016.980469 168.558594 1017.328125 172.101562 C 1018.46875 183.527344 1018.320312 195.078125 1017.007812 206.476562 C 1010.859375 259.585938 980.105469 307.742188 941.320312 344.691406 C 922.261719 362.835938 900.625 379.488281 876.933594 391.757812 C 851.082031 405.140625 821.964844 412.773438 798.269531 429.921875 C 793.957031 433.070312 790.539062 437.457031 789.398438 442.535156 C 788.554688 446.203125 786.695312 453.09375 793.984375 462.535156 C 792.816406 459.539062 792.667969 459.214844 792.324219 455.523438 C 792.398438 452.820312 793.289062 449.996094 795.542969 446.972656 C 801.21875 439.390625 811.902344 435.101562 820.847656 432.25 C 851.777344 422.460938 879.582031 413.019531 906.621094 396.539062 C 976.734375 353.835938 1035.074219 270.988281 1022.707031 188.808594 " fill-opacity="1" fill-rule="nonzero"/></g><path fill="#7b3b00" d="M 852.742188 108.507812 C 843.324219 112.847656 837.03125 117.40625 835.816406 118.25 C 830.585938 130.394531 823.597656 187.070312 834.800781 180.703125 C 835.59375 179.6875 836.832031 178.867188 839.089844 177.355469 C 851.652344 168.957031 892.667969 159.636719 899.855469 158.792969 C 918.269531 156.636719 935.890625 160.925781 946.769531 174.234375 C 946.027344 172.425781 945.210938 170.640625 944.21875 168.832031 C 937.230469 156.066406 923.5 150.195312 909.621094 148.507812 C 902.039062 147.59375 894.355469 147.765625 886.796875 148.558594 C 878.816406 149.402344 871.058594 152.226562 863.203125 152.96875 C 860.648438 153.195312 857.972656 152.847656 855.839844 151.457031 C 846.648438 145.585938 847.464844 124.222656 848.777344 114.953125 C 849.148438 112.324219 850.5625 110.167969 852.742188 108.507812 " fill-opacity="1" fill-rule="nonzero"/><path fill="#ffa445" d="M 1007.265625 184.46875 C 996.808594 155.945312 974.453125 129.722656 943.996094 122.734375 C 920.453125 117.332031 896.335938 123.972656 874.207031 134.210938 C 866.769531 137.65625 858.34375 131.980469 858.691406 123.800781 C 858.890625 119.933594 861.046875 116.414062 864.464844 114.605469 C 889.597656 101.421875 918.023438 91.136719 945.679688 97.480469 C 976.140625 104.496094 998.519531 130.714844 1008.976562 159.242188 C 1009.222656 159.960938 1011.007812 168.433594 1011.28125 171.1875 C 1012.273438 181.222656 1012.964844 182.265625 1011.800781 192.277344 C 1011.578125 194.160156 1009.570312 196.859375 1009 194.953125 C 1008.207031 192.300781 1007.539062 185.1875 1007.265625 184.46875 " fill-opacity="1" fill-rule="nonzero"/><path fill="#ffa445" d="M 838.9375 396.390625 C 820.871094 394.976562 790.117188 402.363281 778.121094 420.652344 C 770.015625 433.019531 766.917969 452.226562 777.230469 464.867188 C 778.640625 466.601562 782.757812 472.003906 789.597656 469.871094 C 793.585938 468.609375 790.265625 461.621094 789.449219 460.058594 C 776.558594 434.753906 802.011719 417.753906 820.625 409.773438 C 827.710938 406.726562 835.097656 405.039062 842.285156 402.289062 C 842.832031 402.066406 843.402344 401.867188 843.820312 401.421875 C 844.242188 401 844.195312 400.378906 844.195312 399.785156 C 844.117188 397.035156 840.03125 396.464844 838.9375 396.390625 " fill-opacity="1" fill-rule="nonzero"/><g clip-path="url(#05f9f78b5f)"><path fill="#7b3b00" d="M 749.992188 996.984375 C 760.105469 996.984375 768.308594 988.78125 768.308594 978.671875 L 768.308594 963.601562 C 768.308594 935.226562 748.828125 911.261719 722.605469 904.246094 C 730.859375 913.417969 735.570312 925.832031 734.304688 939.316406 C 732.519531 958.347656 715.59375 972.402344 696.484375 972.402344 L 306.796875 972.402344 C 288.382812 972.402344 273.3125 957.332031 273.3125 938.894531 L 273.3125 936.390625 C 269.199219 944.617188 266.84375 953.835938 266.84375 963.601562 L 266.84375 972.324219 C 266.84375 972.402344 266.84375 978.792969 266.84375 978.867188 C 266.871094 988.980469 275.542969 996.984375 285.679688 996.984375 L 749.992188 996.984375 " fill-opacity="1" fill-rule="nonzero"/></g><path fill="#cd6200" d="M 390.5625 888.039062 L 614.949219 888.039062 C 622.308594 888.039062 628.480469 883.007812 630.390625 876.242188 C 627.21875 862.265625 611.726562 856.960938 579.707031 825.734375 C 535.195312 782.339844 546.375 655.324219 551.304688 614.582031 C 551.828125 610.492188 552.222656 607.296875 552.519531 605.113281 C 552.867188 602.957031 553.039062 592.101562 553.039062 592.101562 L 465.507812 592.101562 C 470.613281 628.261719 487.589844 775.746094 433.214844 824.570312 C 398.320312 855.992188 380.253906 862.957031 375.046875 875.992188 C 376.882812 882.882812 383.128906 888.039062 390.5625 888.039062 " fill-opacity="1" fill-rule="nonzero"/><path fill="#ffa445" d="M 402.757812 888.039062 L 437.898438 888.039062 C 430.464844 888.039062 424.21875 882.882812 422.410156 875.992188 C 427.613281 862.957031 445.65625 855.992188 480.550781 824.570312 C 533.265625 777.257812 518.9375 637.234375 513.363281 595.746094 L 478.21875 595.746094 C 483.796875 637.234375 498.121094 777.257812 445.40625 824.570312 C 410.511719 855.992188 392.472656 862.957031 387.265625 875.992188 C 389.074219 882.882812 395.320312 888.039062 402.757812 888.039062 " fill-opacity="1" fill-rule="nonzero"/><path fill="#7b3b00" d="M 601.914062 824.570312 C 550.066406 777.925781 563.078125 641.496094 568.828125 597.730469 C 569.449219 593.316406 569.917969 589.898438 570.242188 587.566406 C 570.636719 585.238281 570.835938 584.023438 570.835938 584.023438 L 464.292969 584.023438 C 464.292969 584.023438 464.789062 586.921875 465.507812 592.101562 L 553.039062 592.101562 C 553.039062 592.101562 552.867188 602.957031 552.519531 605.113281 C 552.222656 607.296875 551.828125 610.492188 551.304688 614.582031 C 546.375 655.324219 535.195312 782.339844 579.707031 825.734375 C 611.726562 856.960938 627.21875 862.265625 630.390625 876.242188 C 628.480469 883.007812 622.308594 888.039062 614.949219 888.039062 L 390.5625 888.039062 C 383.128906 888.039062 376.882812 882.882812 375.046875 875.992188 C 373.785156 879.214844 373.238281 882.808594 373.460938 887.222656 C 373.535156 888.3125 373.585938 889.402344 373.734375 890.640625 C 374.132812 894.035156 374.925781 897.925781 375.988281 902.4375 L 659.164062 902.4375 C 668.40625 864 653.636719 871.039062 601.914062 824.570312 " fill-opacity="1" fill-rule="nonzero"/><path fill="#7b3b00" d="M 577.996094 531.359375 L 457.15625 531.359375 C 453.511719 531.359375 449.992188 531.878906 446.621094 532.796875 L 573.339844 532.796875 C 588.109375 532.796875 600.179688 544.867188 600.179688 559.613281 L 600.179688 568.90625 C 600.179688 583.652344 588.109375 595.746094 573.339844 595.746094 L 440.699219 595.746094 C 430.140625 595.746094 421.019531 589.5 416.660156 580.578125 C 420.375 599.511719 437.15625 613.9375 457.15625 613.9375 L 577.996094 613.9375 C 600.699219 613.9375 619.285156 595.347656 619.285156 572.648438 C 619.285156 549.921875 600.699219 531.359375 577.996094 531.359375 " fill-opacity="1" fill-rule="nonzero"/><path fill="#cd6200" d="M 440.699219 595.746094 L 573.339844 595.746094 C 588.109375 595.746094 600.179688 583.652344 600.179688 568.90625 L 600.179688 559.613281 C 600.179688 544.867188 588.109375 532.796875 573.339844 532.796875 L 446.621094 532.796875 C 428.976562 537.480469 415.867188 553.589844 415.867188 572.648438 C 415.867188 575.347656 416.164062 578 416.660156 580.578125 C 421.019531 589.5 430.140625 595.746094 440.699219 595.746094 " fill-opacity="1" fill-rule="nonzero"/><path fill="#ffa445" d="M 463.996094 580.578125 C 463.5 578 463.203125 575.347656 463.203125 572.648438 C 463.203125 553.589844 476.3125 537.480469 493.957031 532.796875 L 458.816406 532.796875 C 441.195312 537.480469 428.085938 553.589844 428.085938 572.648438 C 428.085938 575.347656 428.355469 578 428.851562 580.578125 C 433.238281 589.5 442.335938 595.746094 452.890625 595.746094 L 478.21875 595.746094 C 478.121094 595.003906 478.023438 594.359375 477.949219 593.664062 C 471.851562 591.136719 466.894531 586.476562 463.996094 580.578125 " fill-opacity="1" fill-rule="nonzero"/><path fill="#cd6200" d="M 290.4375 972.402344 L 700.625 972.402344 C 714.207031 972.402344 726.945312 964.347656 731.527344 951.582031 C 738.046875 933.515625 733.3125 916.144531 722.605469 904.246094 C 717.550781 902.910156 712.296875 902.117188 706.84375 902.117188 L 328.308594 902.117188 C 304.269531 902.117188 283.398438 916.144531 273.3125 936.390625 L 273.3125 955.25 C 273.3125 964.691406 281.019531 972.402344 290.4375 972.402344 " fill-opacity="1" fill-rule="nonzero"/><path fill="#ffa445" d="M 339.683594 938.894531 L 339.683594 936.390625 C 348.953125 909.945312 370.660156 902.117188 394.703125 902.117188 L 359.558594 902.117188 C 335.519531 902.117188 312.917969 908.136719 304.539062 936.390625 L 304.34375 945.980469 C 304.34375 964.421875 306.917969 972.402344 325.359375 972.402344 L 373.191406 972.402344 C 354.777344 972.402344 339.683594 957.308594 339.683594 938.894531 " fill-opacity="1" fill-rule="nonzero"/><path fill="#cd6200" d="M 830.265625 3.207031 L 204.910156 3.207031 C 185.359375 3.207031 169.371094 17.925781 169.371094 35.894531 L 169.371094 43.132812 C 169.371094 45.957031 169.820312 48.707031 170.5625 51.335938 C 174.527344 65.386719 188.429688 75.84375 204.910156 75.84375 L 830.265625 75.84375 C 849.792969 75.84375 865.78125 61.125 865.78125 43.132812 L 865.78125 35.894531 C 865.78125 17.925781 849.792969 3.207031 830.265625 3.207031 " fill-opacity="1" fill-rule="nonzero"/><path fill="#7b3b00" d="M 837.726562 114.628906 C 837.726562 371.039062 701.246094 566.007812 517.578125 566.007812 C 464.019531 566.007812 414.476562 549.226562 371.132812 519.363281 C 403.300781 532.699219 440.476562 539.984375 483.300781 539.984375 C 648.53125 539.984375 771.355469 364.542969 771.355469 133.863281 C 771.355469 113.761719 754.925781 97.332031 734.875 97.332031 L 322.234375 96.367188 L 248.679688 96.167969 L 197.675781 96.042969 C 197.921875 88.238281 198.246094 80.378906 198.691406 72.648438 L 247.367188 72.773438 L 321.839844 72.894531 L 836.511719 74.109375 C 837.328125 87.417969 837.726562 100.925781 837.726562 114.628906 " fill-opacity="1" fill-rule="nonzero"/><path fill="#cd6200" d="M 771.355469 133.835938 C 771.355469 113.789062 754.949219 97.332031 734.898438 97.28125 L 197.699219 96.09375 C 197.550781 102.238281 197.425781 108.410156 197.425781 114.605469 C 197.425781 296.191406 265.929688 446.847656 371.132812 519.390625 C 403.324219 532.699219 440.5 539.960938 483.277344 539.960938 C 648.53125 539.960938 771.355469 364.519531 771.355469 133.835938 " fill-opacity="1" fill-rule="nonzero"/><path fill="#ffa445" d="M 325.257812 3.179688 C 323.054688 29.449219 321.839844 43.703125 321.839844 71.261719 L 321.839844 72.894531 L 247.367188 72.773438 C 246.796875 58.746094 246.472656 44.542969 246.472656 30.195312 C 246.472656 16.8125 246.796875 16.316406 247.292969 3.179688 L 325.257812 3.179688 " fill-opacity="1" fill-rule="nonzero"/><path fill="#ffa445" d="M 471.007812 517.777344 C 356.410156 501.71875 263.847656 323.875 248.679688 96.167969 L 322.234375 96.367188 C 327.042969 286.972656 387.117188 448.3125 471.007812 517.777344 " fill-opacity="1" fill-rule="nonzero"/></svg>