<svg xmlns="http://www.w3.org/2000/svg" xmlns:xlink="http://www.w3.org/1999/xlink" width="1366" zoomAndPan="magnify" viewBox="0 0 1024.5 998.25" height="1331" preserveAspectRatio="xMidYMid meet" version="1.0"><defs><clipPath id="8185485bc0"><path d="M 788 161 L 1023.867188 161 L 1023.867188 463 L 788 463 Z M 788 161 " clip-rule="nonzero"/></clipPath><clipPath id="865362830d"><path d="M 266 904.050781 L 769 904.050781 L 769 996.945312 L 266 996.945312 Z M 266 904.050781 " clip-rule="nonzero"/></clipPath></defs><path fill="#f9b200" d="M 241.265625 499.980469 C 256.503906 504.191406 271.988281 495.441406 281.628906 484.4375 C 292.207031 472.367188 298.328125 461.289062 301.273438 450.0625 C 304.125 439.082031 303.28125 429.835938 300.136719 421.90625 C 314.554688 434.222656 323.746094 450.359375 317.378906 471.203125 C 313.9375 482.53125 305.984375 494.5 293.769531 506.769531 C 283.410156 517.15625 268.867188 524.121094 253.703125 522.011719 C 240.421875 520.152344 220.253906 508.578125 220.28125 493.585938 C 220.304688 488.355469 223.425781 483.644531 227.339844 479.132812 C 225.308594 489.148438 230.117188 496.878906 241.265625 499.980469 " fill-opacity="1" fill-rule="nonzero"/><path fill="#ffd202" d="M 236.953125 429.835938 C 213.292969 412.6875 184.15625 405.050781 158.3125 391.667969 C 134.652344 379.398438 112.996094 362.742188 93.945312 344.601562 C 55.167969 307.648438 24.421875 259.488281 18.277344 206.375 C 16.964844 194.972656 16.8125 183.425781 17.953125 171.996094 C 18.300781 168.453125 18.847656 164.882812 19.441406 161.289062 C 31.136719 128.402344 56.777344 97.914062 91.839844 89.859375 C 125.609375 82.078125 160.394531 96.15625 190.425781 112.6875 C 190.472656 113.878906 197.039062 115.835938 197.089844 117.023438 C 197.707031 131.152344 189.410156 154.054688 190.027344 168.179688 C 188.789062 167.363281 187.476562 166.621094 186.1875 165.976562 C 161.285156 153.609375 107.96875 137.792969 91.046875 168.726562 C 90.054688 170.535156 89.238281 172.320312 88.492188 174.128906 C 86.238281 176.878906 84.257812 180.003906 82.621094 183.546875 C 71.347656 208.308594 71.125 233.960938 81.976562 259.8125 C 109.628906 325.617188 199.46875 375.308594 248.203125 394.296875 L 252.8125 396.054688 C 267.304688 401.65625 286.160156 410.007812 300.136719 421.90625 C 303.28125 429.835938 304.125 439.082031 301.273438 450.0625 C 298.328125 461.289062 292.207031 472.367188 281.628906 484.4375 C 271.988281 495.441406 256.503906 504.191406 241.265625 499.980469 C 230.117188 496.878906 225.308594 489.148438 227.339844 479.132812 C 234.082031 471.351562 243.125 464.066406 242.902344 455.441406 C 245.378906 451.921875 246.890625 447.953125 245.824219 442.453125 C 244.832031 437.347656 241.265625 432.984375 236.953125 429.835938 " fill-opacity="1" fill-rule="nonzero"/><path fill="#f9b200" d="M 12.578125 188.703125 C 13.867188 180.027344 15.972656 171.378906 18.894531 162.777344 C 19.070312 162.28125 19.265625 161.785156 19.441406 161.289062 C 18.847656 164.882812 18.300781 168.453125 17.953125 171.996094 C 16.8125 183.425781 16.964844 194.972656 18.277344 206.375 C 24.421875 259.488281 55.167969 307.648438 93.945312 344.601562 C 112.996094 362.742188 134.652344 379.398438 158.3125 391.667969 C 184.15625 405.050781 213.292969 412.6875 236.953125 429.835938 C 241.265625 432.984375 244.683594 437.371094 245.824219 442.453125 C 246.667969 446.121094 248.550781 453.011719 241.242188 462.453125 C 242.40625 459.453125 242.578125 459.132812 242.902344 455.441406 C 242.828125 452.738281 241.933594 449.914062 239.679688 446.890625 C 234.03125 439.304688 223.351562 435.015625 214.382812 432.167969 C 183.488281 422.375 155.6875 412.933594 128.632812 396.453125 C 58.539062 353.746094 0.238281 270.890625 12.578125 188.703125 " fill-opacity="1" fill-rule="nonzero"/><path fill="#f9b200" d="M 182.496094 108.398438 C 191.910156 112.738281 198.203125 117.296875 199.441406 118.140625 C 204.644531 130.285156 211.632812 186.96875 200.457031 180.597656 C 199.640625 179.582031 198.402344 178.765625 196.148438 177.253906 C 183.585938 168.851562 142.582031 159.53125 135.421875 158.6875 C 116.984375 156.53125 99.371094 160.820312 88.492188 174.128906 C 89.238281 172.320312 90.054688 170.535156 91.046875 168.726562 C 98.03125 155.960938 111.785156 150.089844 125.632812 148.402344 C 133.214844 147.484375 140.894531 147.660156 148.476562 148.453125 C 156.429688 149.292969 164.1875 152.121094 172.066406 152.863281 C 174.59375 153.085938 177.269531 152.738281 179.398438 151.351562 C 188.589844 145.476562 187.796875 124.113281 186.460938 114.84375 C 186.089844 112.214844 184.675781 110.058594 182.496094 108.398438 " fill-opacity="1" fill-rule="nonzero"/><path fill="#ffe36c" d="M 28.011719 184.367188 C 38.46875 155.839844 60.816406 129.617188 91.269531 122.625 C 114.804688 117.222656 138.914062 123.867188 161.039062 134.101562 C 168.496094 137.546875 176.894531 131.871094 176.550781 123.691406 C 176.375 119.824219 174.195312 116.304688 170.777344 114.496094 C 145.675781 101.3125 117.234375 91.023438 89.582031 97.371094 C 59.132812 104.382812 36.785156 130.605469 26.328125 159.132812 C 26.054688 159.851562 24.296875 168.328125 24.023438 171.082031 C 23.007812 181.117188 22.339844 182.160156 23.480469 192.171875 C 23.703125 194.058594 25.734375 196.757812 26.304688 194.851562 C 27.097656 192.199219 27.742188 185.085938 28.011719 184.367188 " fill-opacity="1" fill-rule="nonzero"/><path fill="#ffe36c" d="M 196.296875 396.300781 C 214.382812 394.890625 245.132812 402.277344 257.097656 420.566406 C 265.199219 432.933594 268.320312 452.144531 258.015625 464.785156 C 256.578125 466.519531 252.464844 471.921875 245.652344 469.789062 C 241.664062 468.527344 244.957031 461.535156 245.773438 459.976562 C 258.660156 434.671875 233.214844 417.667969 214.605469 409.6875 C 207.519531 406.636719 200.136719 404.953125 192.953125 402.203125 C 192.40625 401.976562 191.835938 401.78125 191.414062 401.335938 C 190.992188 400.914062 191.042969 400.292969 191.070312 399.699219 C 191.117188 396.945312 195.207031 396.378906 196.296875 396.300781 " fill-opacity="1" fill-rule="nonzero"/><path fill="#f9b200" d="M 793.882812 499.980469 C 778.644531 504.191406 763.1875 495.441406 753.523438 484.4375 C 742.941406 472.367188 736.824219 461.289062 733.898438 450.0625 C 731.027344 439.082031 731.867188 429.835938 735.039062 421.90625 C 720.59375 434.222656 711.425781 450.359375 717.769531 471.203125 C 721.214844 482.53125 729.167969 494.5 741.382812 506.769531 C 751.738281 517.15625 766.28125 524.121094 781.445312 522.011719 C 794.726562 520.152344 814.917969 508.578125 814.871094 493.585938 C 814.84375 488.355469 811.746094 483.644531 807.808594 479.132812 C 809.839844 489.148438 805.035156 496.878906 793.882812 499.980469 " fill-opacity="1" fill-rule="nonzero"/><path fill="#ffd202" d="M 798.195312 429.835938 C 821.882812 412.6875 850.992188 405.050781 876.835938 391.667969 C 900.523438 379.398438 922.152344 362.742188 941.207031 344.601562 C 979.980469 307.648438 1010.730469 259.488281 1016.875 206.375 C 1018.1875 194.972656 1018.335938 183.425781 1017.195312 171.996094 C 1016.847656 168.453125 1016.304688 164.882812 1015.710938 161.289062 C 1004.015625 128.402344 978.371094 97.914062 943.3125 89.859375 C 909.542969 82.078125 874.78125 96.15625 844.75 112.6875 C 844.675781 113.878906 838.136719 115.835938 838.0625 117.023438 C 837.441406 131.152344 845.742188 154.054688 845.121094 168.179688 C 846.359375 167.363281 847.675781 166.621094 848.960938 165.976562 C 873.863281 153.609375 927.207031 137.792969 944.105469 168.726562 C 945.09375 170.535156 945.914062 172.320312 946.65625 174.128906 C 948.910156 176.878906 950.917969 180.003906 952.527344 183.546875 C 963.828125 208.308594 964.050781 233.960938 953.171875 259.8125 C 925.523438 325.617188 835.683594 375.308594 786.972656 394.296875 L 782.363281 396.054688 C 767.867188 401.65625 748.988281 410.007812 735.039062 421.90625 C 731.867188 429.835938 731.027344 439.082031 733.898438 450.0625 C 736.824219 461.289062 742.941406 472.367188 753.523438 484.4375 C 763.1875 495.441406 778.644531 504.191406 793.882812 499.980469 C 805.035156 496.878906 809.839844 489.148438 807.808594 479.132812 C 801.070312 471.351562 792.027344 464.066406 792.25 455.441406 C 789.769531 451.921875 788.257812 447.953125 789.324219 442.453125 C 790.316406 437.347656 793.882812 432.984375 798.195312 429.835938 " fill-opacity="1" fill-rule="nonzero"/><g clip-path="url(#8185485bc0)"><path fill="#f9b200" d="M 1022.570312 188.703125 C 1021.285156 180.027344 1019.203125 171.378906 1016.253906 162.777344 C 1016.082031 162.28125 1015.882812 161.785156 1015.710938 161.289062 C 1016.304688 164.882812 1016.847656 168.453125 1017.195312 171.996094 C 1018.335938 183.425781 1018.1875 194.972656 1016.875 206.375 C 1010.730469 259.488281 979.980469 307.648438 941.207031 344.601562 C 922.152344 362.742188 900.523438 379.398438 876.835938 391.667969 C 850.992188 405.050781 821.882812 412.6875 798.195312 429.835938 C 793.882812 432.984375 790.464844 437.371094 789.324219 442.453125 C 788.484375 446.121094 786.625 453.011719 793.910156 462.453125 C 792.746094 459.453125 792.59375 459.132812 792.25 455.441406 C 792.324219 452.738281 793.214844 449.914062 795.46875 446.890625 C 801.144531 439.304688 811.820312 435.015625 820.765625 432.167969 C 851.6875 422.375 879.488281 412.933594 906.519531 396.453125 C 976.613281 353.746094 1034.9375 270.890625 1022.570312 188.703125 " fill-opacity="1" fill-rule="nonzero"/></g><path fill="#f9b200" d="M 852.652344 108.398438 C 843.238281 112.738281 836.945312 117.296875 835.730469 118.140625 C 830.503906 130.285156 823.515625 186.96875 834.714844 180.597656 C 835.507812 179.582031 836.746094 178.765625 839.003906 177.253906 C 851.5625 168.851562 892.570312 159.53125 899.753906 158.6875 C 918.164062 156.53125 935.78125 160.820312 946.65625 174.128906 C 945.914062 172.320312 945.09375 170.535156 944.105469 168.726562 C 937.117188 155.960938 923.390625 150.089844 909.515625 148.402344 C 901.933594 147.484375 894.253906 147.660156 886.695312 148.453125 C 878.71875 149.292969 870.964844 152.121094 863.109375 152.863281 C 860.558594 153.085938 857.882812 152.738281 855.75 151.351562 C 846.558594 145.476562 847.375 124.113281 848.691406 114.84375 C 849.0625 112.214844 850.472656 110.058594 852.652344 108.398438 " fill-opacity="1" fill-rule="nonzero"/><path fill="#ffe36c" d="M 1007.136719 184.367188 C 996.679688 155.839844 974.332031 129.617188 943.882812 122.625 C 920.34375 117.222656 896.234375 123.867188 874.109375 134.101562 C 866.675781 137.546875 858.253906 131.871094 858.601562 123.691406 C 858.796875 119.824219 860.953125 116.304688 864.375 114.496094 C 889.496094 101.3125 917.914062 91.023438 945.566406 97.371094 C 976.015625 104.382812 998.390625 130.605469 1008.847656 159.132812 C 1009.09375 159.851562 1010.878906 168.328125 1011.148438 171.082031 C 1012.140625 181.117188 1012.835938 182.160156 1011.671875 192.171875 C 1011.449219 194.058594 1009.441406 196.757812 1008.871094 194.851562 C 1008.078125 192.199219 1007.410156 185.085938 1007.136719 184.367188 " fill-opacity="1" fill-rule="nonzero"/><path fill="#ffe36c" d="M 838.851562 396.300781 C 820.792969 394.890625 790.042969 402.277344 778.050781 420.566406 C 769.949219 432.933594 766.851562 452.144531 777.160156 464.785156 C 778.570312 466.519531 782.683594 471.921875 789.523438 469.789062 C 793.511719 468.527344 790.191406 461.535156 789.375 459.976562 C 776.492188 434.671875 801.9375 417.667969 820.542969 409.6875 C 827.628906 406.636719 835.011719 404.953125 842.199219 402.203125 C 842.742188 401.976562 843.3125 401.78125 843.734375 401.335938 C 844.15625 400.914062 844.105469 400.292969 844.105469 399.699219 C 844.03125 396.945312 839.945312 396.378906 838.851562 396.300781 " fill-opacity="1" fill-rule="nonzero"/><g clip-path="url(#865362830d)"><path fill="#f9b200" d="M 749.929688 996.945312 C 760.039062 996.945312 768.238281 988.738281 768.238281 978.628906 L 768.238281 963.558594 C 768.238281 935.179688 748.765625 911.210938 722.550781 904.199219 C 730.800781 913.367188 735.511719 925.785156 734.246094 939.269531 C 732.460938 958.304688 715.539062 972.355469 696.4375 972.355469 L 306.851562 972.355469 C 288.441406 972.355469 273.375 957.289062 273.375 938.847656 L 273.375 936.34375 C 269.261719 944.574219 266.910156 953.792969 266.910156 963.558594 L 266.910156 972.28125 C 266.910156 972.355469 266.910156 978.75 266.910156 978.824219 C 266.933594 988.9375 275.605469 996.945312 285.738281 996.945312 L 749.929688 996.945312 " fill-opacity="1" fill-rule="nonzero"/></g><path fill="#ffd202" d="M 390.59375 887.988281 L 614.921875 887.988281 C 622.28125 887.988281 628.449219 882.957031 630.359375 876.191406 C 627.1875 862.210938 611.703125 856.90625 579.691406 825.679688 C 535.191406 782.28125 546.367188 655.257812 551.296875 614.511719 C 551.816406 610.421875 552.210938 607.222656 552.511719 605.042969 C 552.855469 602.886719 553.03125 592.03125 553.03125 592.03125 L 465.519531 592.03125 C 470.625 628.191406 487.59375 775.6875 433.234375 824.515625 C 398.351562 855.941406 380.289062 862.90625 375.085938 875.941406 C 376.917969 882.832031 383.160156 887.988281 390.59375 887.988281 " fill-opacity="1" fill-rule="nonzero"/><path fill="#ffe36c" d="M 402.785156 887.988281 L 437.917969 887.988281 C 430.484375 887.988281 424.242188 882.832031 422.433594 875.941406 C 427.636719 862.90625 445.671875 855.941406 480.558594 824.515625 C 533.257812 777.199219 518.9375 637.164062 513.363281 595.671875 L 478.230469 595.671875 C 483.804688 637.164062 498.125 777.199219 445.425781 824.515625 C 410.539062 855.941406 392.503906 862.90625 387.300781 875.941406 C 389.109375 882.832031 395.351562 887.988281 402.785156 887.988281 " fill-opacity="1" fill-rule="nonzero"/><path fill="#f9b200" d="M 601.890625 824.515625 C 550.058594 777.867188 563.066406 641.425781 568.8125 597.65625 C 569.433594 593.246094 569.902344 589.824219 570.226562 587.496094 C 570.621094 585.164062 570.820312 583.949219 570.820312 583.949219 L 464.304688 583.949219 C 464.304688 583.949219 464.800781 586.851562 465.519531 592.03125 L 553.03125 592.03125 C 553.03125 592.03125 552.855469 602.886719 552.511719 605.042969 C 552.210938 607.222656 551.816406 610.421875 551.296875 614.511719 C 546.367188 655.257812 535.191406 782.28125 579.691406 825.679688 C 611.703125 856.90625 627.1875 862.210938 630.359375 876.191406 C 628.449219 882.957031 622.28125 887.988281 614.921875 887.988281 L 390.59375 887.988281 C 383.160156 887.988281 376.917969 882.832031 375.085938 875.941406 C 373.820312 879.164062 373.277344 882.757812 373.5 887.171875 C 373.574219 888.261719 373.621094 889.351562 373.769531 890.589844 C 374.167969 893.988281 374.960938 897.878906 376.027344 902.390625 L 659.125 902.390625 C 668.367188 863.945312 653.597656 870.984375 601.890625 824.515625 " fill-opacity="1" fill-rule="nonzero"/><path fill="#f9b200" d="M 577.980469 531.28125 L 457.167969 531.28125 C 453.527344 531.28125 450.007812 531.800781 446.640625 532.71875 L 573.324219 532.71875 C 588.089844 532.71875 600.15625 544.789062 600.15625 559.535156 L 600.15625 568.832031 C 600.15625 583.578125 588.089844 595.671875 573.324219 595.671875 L 440.71875 595.671875 C 430.164062 595.671875 421.046875 589.429688 416.683594 580.503906 C 420.402344 599.441406 437.175781 613.867188 457.167969 613.867188 L 577.980469 613.867188 C 600.675781 613.867188 619.257812 595.277344 619.257812 572.574219 C 619.257812 549.847656 600.675781 531.28125 577.980469 531.28125 " fill-opacity="1" fill-rule="nonzero"/><path fill="#ffd202" d="M 440.71875 595.671875 L 573.324219 595.671875 C 588.089844 595.671875 600.15625 583.578125 600.15625 568.832031 L 600.15625 559.535156 C 600.15625 544.789062 588.089844 532.71875 573.324219 532.71875 L 446.640625 532.71875 C 429 537.402344 415.890625 553.515625 415.890625 572.574219 C 415.890625 575.277344 416.1875 577.925781 416.683594 580.503906 C 421.046875 589.429688 430.164062 595.671875 440.71875 595.671875 " fill-opacity="1" fill-rule="nonzero"/><path fill="#ffe36c" d="M 464.007812 580.503906 C 463.511719 577.925781 463.214844 575.277344 463.214844 572.574219 C 463.214844 553.515625 476.320312 537.402344 493.960938 532.71875 L 458.828125 532.71875 C 441.214844 537.402344 428.105469 553.515625 428.105469 572.574219 C 428.105469 575.277344 428.378906 577.925781 428.875 580.503906 C 433.261719 589.429688 442.351562 595.671875 452.90625 595.671875 L 478.230469 595.671875 C 478.128906 594.929688 478.03125 594.285156 477.957031 593.589844 C 471.863281 591.0625 466.90625 586.402344 464.007812 580.503906 " fill-opacity="1" fill-rule="nonzero"/><path fill="#ffd202" d="M 290.496094 972.355469 L 700.574219 972.355469 C 714.152344 972.355469 726.886719 964.300781 731.472656 951.539062 C 737.988281 933.46875 733.253906 916.09375 722.550781 904.199219 C 717.496094 902.859375 712.246094 902.066406 706.792969 902.066406 L 328.355469 902.066406 C 304.324219 902.066406 283.460938 916.09375 273.375 936.34375 L 273.375 955.207031 C 273.375 964.648438 281.082031 972.355469 290.496094 972.355469 " fill-opacity="1" fill-rule="nonzero"/><path fill="#ffe36c" d="M 339.726562 938.847656 L 339.726562 936.34375 C 348.996094 909.898438 370.699219 902.066406 394.730469 902.066406 L 359.597656 902.066406 C 335.566406 902.066406 312.96875 908.089844 304.59375 936.34375 L 304.398438 945.9375 C 304.398438 964.375 306.972656 972.355469 325.40625 972.355469 L 373.226562 972.355469 C 354.816406 972.355469 339.726562 957.261719 339.726562 938.847656 " fill-opacity="1" fill-rule="nonzero"/><path fill="#ffd202" d="M 830.183594 3.085938 L 204.992188 3.085938 C 185.445312 3.085938 169.464844 17.808594 169.464844 35.777344 L 169.464844 43.015625 C 169.464844 45.84375 169.910156 48.59375 170.652344 51.21875 C 174.617188 65.273438 188.515625 75.734375 204.992188 75.734375 L 830.183594 75.734375 C 849.707031 75.734375 865.6875 61.011719 865.6875 43.015625 L 865.6875 35.777344 C 865.6875 17.808594 849.707031 3.085938 830.183594 3.085938 " fill-opacity="1" fill-rule="nonzero"/><path fill="#f9b200" d="M 837.640625 114.519531 C 837.640625 370.949219 701.195312 565.929688 517.574219 565.929688 C 464.03125 565.929688 414.503906 549.152344 371.167969 519.285156 C 403.328125 532.621094 440.496094 539.90625 483.308594 539.90625 C 648.496094 539.90625 771.289062 364.453125 771.289062 133.753906 C 771.289062 113.652344 754.859375 97.222656 734.816406 97.222656 L 322.285156 96.253906 L 248.75 96.054688 L 197.757812 95.933594 C 198.007812 88.125 198.328125 80.269531 198.773438 72.535156 L 247.433594 72.660156 L 321.890625 72.785156 L 836.425781 73.996094 C 837.242188 87.308594 837.640625 100.816406 837.640625 114.519531 " fill-opacity="1" fill-rule="nonzero"/><path fill="#ffd202" d="M 771.289062 133.730469 C 771.289062 113.679688 754.886719 97.222656 734.839844 97.171875 L 197.78125 95.980469 C 197.632812 102.128906 197.511719 108.300781 197.511719 114.496094 C 197.511719 296.097656 265.992188 446.765625 371.167969 519.3125 C 403.355469 532.621094 440.519531 539.882812 483.285156 539.882812 C 648.496094 539.882812 771.289062 364.429688 771.289062 133.730469 " fill-opacity="1" fill-rule="nonzero"/><path fill="#ffe36c" d="M 325.308594 3.0625 C 323.101562 29.335938 321.890625 43.585938 321.890625 71.148438 L 321.890625 72.785156 L 247.433594 72.660156 C 246.867188 58.632812 246.542969 44.429688 246.542969 30.078125 C 246.542969 16.695312 246.867188 16.199219 247.359375 3.0625 L 325.308594 3.0625 " fill-opacity="1" fill-rule="nonzero"/><path fill="#ffe36c" d="M 471.019531 517.699219 C 356.453125 501.640625 263.910156 323.78125 248.75 96.054688 L 322.285156 96.253906 C 327.09375 286.875 387.152344 448.226562 471.019531 517.699219 " fill-opacity="1" fill-rule="nonzero"/></svg>