<svg xmlns="http://www.w3.org/2000/svg" xmlns:xlink="http://www.w3.org/1999/xlink" width="1366" zoomAndPan="magnify" viewBox="0 0 1024.5 996.75" height="1329" preserveAspectRatio="xMidYMid meet" version="1.0"><defs><clipPath id="3e1bb26755"><path d="M 787 160 L 1022 160 L 1022 461 L 787 461 Z M 787 160 " clip-rule="nonzero"/></clipPath><clipPath id="49cf6fb4a1"><path d="M 267 901.011719 L 768 901.011719 L 768 993.582031 L 267 993.582031 Z M 267 901.011719 " clip-rule="nonzero"/></clipPath></defs><path fill="#76868f" d="M 242.121094 498.355469 C 257.308594 502.550781 272.746094 493.832031 282.351562 482.867188 C 292.898438 470.839844 299 459.800781 301.9375 448.609375 C 304.777344 437.667969 303.941406 428.457031 300.804688 420.554688 C 315.175781 432.828125 324.339844 448.90625 317.992188 469.679688 C 314.558594 480.964844 306.632812 492.894531 294.457031 505.121094 C 284.132812 515.46875 269.632812 522.410156 254.519531 520.3125 C 241.28125 518.457031 221.175781 506.925781 221.199219 491.980469 C 221.226562 486.769531 224.335938 482.078125 228.238281 477.582031 C 226.214844 487.5625 231.003906 495.265625 242.121094 498.355469 " fill-opacity="1" fill-rule="nonzero"/><path fill="#a8a8a8" d="M 237.820312 428.457031 C 214.234375 411.367188 185.191406 403.757812 159.429688 390.421875 C 135.84375 378.195312 114.257812 361.597656 95.261719 343.519531 C 56.609375 306.695312 25.960938 258.707031 19.832031 205.777344 C 18.523438 194.414062 18.375 182.90625 19.511719 171.519531 C 19.859375 167.988281 20.402344 164.429688 20.996094 160.851562 C 32.652344 128.074219 58.214844 97.695312 93.164062 89.667969 C 126.828125 81.914062 161.503906 95.941406 191.4375 112.417969 C 191.488281 113.601562 198.03125 115.554688 198.082031 116.738281 C 198.699219 130.816406 190.425781 153.636719 191.042969 167.714844 C 189.808594 166.902344 188.5 166.160156 187.214844 165.519531 C 162.394531 153.195312 109.242188 137.4375 92.375 168.257812 C 91.386719 170.0625 90.570312 171.839844 89.828125 173.644531 C 87.582031 176.386719 85.605469 179.496094 83.976562 183.03125 C 72.738281 207.703125 72.515625 233.265625 83.332031 259.027344 C 110.898438 324.601562 200.453125 374.121094 249.035156 393.039062 L 253.628906 394.792969 C 268.078125 400.375 286.871094 408.699219 300.804688 420.554688 C 303.941406 428.457031 304.777344 437.667969 301.9375 448.609375 C 299 459.800781 292.898438 470.839844 282.351562 482.867188 C 272.746094 493.832031 257.308594 502.550781 242.121094 498.355469 C 231.003906 495.265625 226.214844 487.5625 228.238281 477.582031 C 234.957031 469.828125 243.972656 462.566406 243.75 453.972656 C 246.21875 450.464844 247.726562 446.511719 246.664062 441.027344 C 245.675781 435.941406 242.121094 431.59375 237.820312 428.457031 " fill-opacity="1" fill-rule="nonzero"/><path fill="#76868f" d="M 14.152344 188.167969 C 15.4375 179.523438 17.535156 170.902344 20.453125 162.332031 C 20.625 161.839844 20.820312 161.34375 20.996094 160.851562 C 20.402344 164.429688 19.859375 167.988281 19.511719 171.519531 C 18.375 182.90625 18.523438 194.414062 19.832031 205.777344 C 25.960938 258.707031 56.609375 306.695312 95.261719 343.519531 C 114.257812 361.597656 135.84375 378.195312 159.429688 390.421875 C 185.191406 403.757812 214.234375 411.367188 237.820312 428.457031 C 242.121094 431.59375 245.527344 435.964844 246.664062 441.027344 C 247.503906 444.683594 249.378906 451.550781 242.09375 460.960938 C 243.253906 457.972656 243.429688 457.652344 243.75 453.972656 C 243.675781 451.277344 242.785156 448.464844 240.539062 445.449219 C 234.90625 437.890625 224.261719 433.621094 215.320312 430.777344 C 184.523438 421.023438 156.8125 411.613281 129.839844 395.1875 C 59.96875 352.632812 1.855469 270.066406 14.152344 188.167969 " fill-opacity="1" fill-rule="nonzero"/><path fill="#76868f" d="M 183.535156 108.144531 C 192.921875 112.464844 199.195312 117.011719 200.429688 117.851562 C 205.617188 129.953125 212.582031 186.4375 201.441406 180.089844 C 200.625 179.078125 199.390625 178.261719 197.144531 176.757812 C 184.621094 168.382812 143.746094 159.097656 136.609375 158.257812 C 118.230469 156.109375 100.671875 160.382812 89.828125 173.644531 C 90.570312 171.839844 91.386719 170.0625 92.375 168.257812 C 99.339844 155.539062 113.046875 149.6875 126.851562 148.007812 C 134.410156 147.09375 142.066406 147.265625 149.625 148.054688 C 157.550781 148.894531 165.28125 151.710938 173.136719 152.453125 C 175.65625 152.675781 178.324219 152.328125 180.449219 150.945312 C 189.609375 145.09375 188.820312 123.800781 187.488281 114.566406 C 187.117188 111.949219 185.707031 109.796875 183.535156 108.144531 " fill-opacity="1" fill-rule="nonzero"/><path fill="#e1e1e1" d="M 29.539062 183.84375 C 39.964844 155.417969 62.242188 129.285156 92.59375 122.320312 C 116.058594 116.9375 140.089844 123.554688 162.144531 133.757812 C 169.582031 137.1875 177.953125 131.535156 177.605469 123.382812 C 177.433594 119.53125 175.261719 116.023438 171.851562 114.21875 C 146.832031 101.082031 118.480469 90.832031 90.914062 97.152344 C 60.5625 104.144531 38.285156 130.273438 27.859375 158.703125 C 27.589844 159.417969 25.835938 167.863281 25.5625 170.605469 C 24.550781 180.609375 23.882812 181.644531 25.019531 191.625 C 25.242188 193.5 27.269531 196.195312 27.835938 194.292969 C 28.625 191.648438 29.269531 184.5625 29.539062 183.84375 " fill-opacity="1" fill-rule="nonzero"/><path fill="#e1e1e1" d="M 197.292969 395.039062 C 215.320312 393.632812 245.972656 400.992188 257.902344 419.21875 C 265.976562 431.542969 269.089844 450.6875 258.816406 463.28125 C 257.382812 465.011719 253.28125 470.394531 246.492188 468.269531 C 242.515625 467.011719 245.800781 460.046875 246.613281 458.492188 C 259.457031 433.273438 234.09375 416.332031 215.542969 408.378906 C 208.480469 405.339844 201.121094 403.660156 193.957031 400.917969 C 193.414062 400.695312 192.847656 400.5 192.425781 400.054688 C 192.007812 399.632812 192.054688 399.015625 192.082031 398.425781 C 192.128906 395.683594 196.207031 395.113281 197.292969 395.039062 " fill-opacity="1" fill-rule="nonzero"/><path fill="#76868f" d="M 792.992188 498.355469 C 777.804688 502.550781 762.390625 493.832031 752.757812 482.867188 C 742.210938 470.839844 736.113281 459.800781 733.199219 448.609375 C 730.332031 437.667969 731.171875 428.457031 734.332031 420.554688 C 719.933594 432.828125 710.796875 448.90625 717.117188 469.679688 C 720.550781 480.964844 728.480469 492.894531 740.65625 505.121094 C 750.980469 515.46875 765.476562 522.410156 780.59375 520.3125 C 793.832031 518.457031 813.960938 506.925781 813.910156 491.980469 C 813.886719 486.769531 810.800781 482.078125 806.871094 477.582031 C 808.898438 487.5625 804.105469 495.265625 792.992188 498.355469 " fill-opacity="1" fill-rule="nonzero"/><path fill="#a8a8a8" d="M 797.289062 428.457031 C 820.902344 411.367188 849.921875 403.757812 875.683594 390.421875 C 899.292969 378.195312 920.855469 361.597656 939.847656 343.519531 C 978.503906 306.695312 1009.152344 258.707031 1015.277344 205.777344 C 1016.585938 194.414062 1016.734375 182.90625 1015.597656 171.519531 C 1015.253906 167.988281 1014.710938 164.429688 1014.117188 160.851562 C 1002.460938 128.074219 976.898438 97.695312 941.949219 89.667969 C 908.285156 81.914062 873.632812 95.941406 843.699219 112.417969 C 843.625 113.601562 837.105469 115.554688 837.03125 116.738281 C 836.414062 130.816406 844.6875 153.636719 844.070312 167.714844 C 845.304688 166.902344 846.613281 166.160156 847.898438 165.519531 C 872.71875 153.195312 925.894531 137.4375 942.738281 168.257812 C 943.726562 170.0625 944.542969 171.839844 945.28125 173.644531 C 947.53125 176.386719 949.53125 179.496094 951.136719 183.03125 C 962.398438 207.703125 962.621094 233.265625 951.777344 259.027344 C 924.214844 324.601562 834.660156 374.121094 786.101562 393.039062 L 781.507812 394.792969 C 767.058594 400.375 748.238281 408.699219 734.332031 420.554688 C 731.171875 428.457031 730.332031 437.667969 733.199219 448.609375 C 736.113281 459.800781 742.210938 470.839844 752.757812 482.867188 C 762.390625 493.832031 777.804688 502.550781 792.992188 498.355469 C 804.105469 495.265625 808.898438 487.5625 806.871094 477.582031 C 800.15625 469.828125 791.140625 462.566406 791.363281 453.972656 C 788.890625 450.464844 787.386719 446.511719 788.449219 441.027344 C 789.4375 435.941406 792.992188 431.59375 797.289062 428.457031 " fill-opacity="1" fill-rule="nonzero"/><g clip-path="url(#3e1bb26755)"><path fill="#76868f" d="M 1020.957031 188.167969 C 1019.675781 179.523438 1017.597656 170.902344 1014.660156 162.332031 C 1014.488281 161.839844 1014.289062 161.34375 1014.117188 160.851562 C 1014.710938 164.429688 1015.253906 167.988281 1015.597656 171.519531 C 1016.734375 182.90625 1016.585938 194.414062 1015.277344 205.777344 C 1009.152344 258.707031 978.503906 306.695312 939.847656 343.519531 C 920.855469 361.597656 899.292969 378.195312 875.683594 390.421875 C 849.921875 403.757812 820.902344 411.367188 797.289062 428.457031 C 792.992188 431.59375 789.585938 435.964844 788.449219 441.027344 C 787.609375 444.683594 785.753906 451.550781 793.015625 460.960938 C 791.855469 457.972656 791.707031 457.652344 791.363281 453.972656 C 791.4375 451.277344 792.324219 448.464844 794.574219 445.449219 C 800.230469 437.890625 810.875 433.621094 819.789062 430.777344 C 850.613281 421.023438 878.324219 411.613281 905.269531 395.1875 C 975.144531 352.632812 1033.28125 270.066406 1020.957031 188.167969 " fill-opacity="1" fill-rule="nonzero"/></g><path fill="#76868f" d="M 851.578125 108.144531 C 842.191406 112.464844 835.917969 117.011719 834.707031 117.851562 C 829.496094 129.953125 822.53125 186.4375 833.695312 180.089844 C 834.484375 179.078125 835.71875 178.261719 837.96875 176.757812 C 850.488281 168.382812 891.367188 159.097656 898.527344 158.257812 C 916.878906 156.109375 934.441406 160.382812 945.28125 173.644531 C 944.542969 171.839844 943.726562 170.0625 942.738281 168.257812 C 935.773438 155.539062 922.089844 149.6875 908.261719 148.007812 C 900.703125 147.09375 893.046875 147.265625 885.511719 148.054688 C 877.558594 148.894531 869.828125 151.710938 862 152.453125 C 859.457031 152.675781 856.789062 152.328125 854.664062 150.945312 C 845.5 145.09375 846.316406 123.800781 847.625 114.566406 C 847.996094 111.949219 849.402344 109.796875 851.578125 108.144531 " fill-opacity="1" fill-rule="nonzero"/><path fill="#e1e1e1" d="M 1005.570312 183.84375 C 995.148438 155.417969 972.871094 129.285156 942.515625 122.320312 C 919.054688 116.9375 895.019531 123.554688 872.964844 133.757812 C 865.554688 137.1875 857.160156 131.535156 857.503906 123.382812 C 857.703125 119.53125 859.851562 116.023438 863.257812 114.21875 C 888.304688 101.082031 916.632812 90.832031 944.195312 97.152344 C 974.550781 104.144531 996.851562 130.273438 1007.277344 158.703125 C 1007.523438 159.417969 1009.300781 167.863281 1009.574219 170.605469 C 1010.558594 180.609375 1011.253906 181.644531 1010.089844 191.625 C 1009.867188 193.5 1007.867188 196.195312 1007.300781 194.292969 C 1006.511719 191.648438 1005.84375 184.5625 1005.570312 183.84375 " fill-opacity="1" fill-rule="nonzero"/><path fill="#e1e1e1" d="M 837.820312 395.039062 C 819.816406 393.632812 789.164062 400.992188 777.210938 419.21875 C 769.132812 431.542969 766.046875 450.6875 776.320312 463.28125 C 777.730469 465.011719 781.828125 470.394531 788.644531 468.269531 C 792.621094 467.011719 789.3125 460.046875 788.496094 458.492188 C 775.652344 433.273438 801.019531 416.332031 819.566406 408.378906 C 826.632812 405.339844 833.992188 403.660156 841.152344 400.917969 C 841.699219 400.695312 842.265625 400.5 842.683594 400.054688 C 843.105469 399.632812 843.054688 399.015625 843.054688 398.425781 C 842.980469 395.683594 838.90625 395.113281 837.820312 395.039062 " fill-opacity="1" fill-rule="nonzero"/><g clip-path="url(#49cf6fb4a1)"><path fill="#76868f" d="M 749.175781 993.582031 C 759.253906 993.582031 767.429688 985.40625 767.429688 975.328125 L 767.429688 960.3125 C 767.429688 932.03125 748.015625 908.148438 721.886719 901.160156 C 730.109375 910.296875 734.804688 922.671875 733.542969 936.109375 C 731.765625 955.078125 714.894531 969.082031 695.855469 969.082031 L 307.496094 969.082031 C 289.144531 969.082031 274.128906 954.0625 274.128906 935.6875 L 274.128906 933.195312 C 270.027344 941.394531 267.683594 950.582031 267.683594 960.3125 L 267.683594 969.007812 C 267.683594 969.082031 267.683594 975.453125 267.683594 975.527344 C 267.707031 985.605469 276.351562 993.582031 286.453125 993.582031 L 749.175781 993.582031 " fill-opacity="1" fill-rule="nonzero"/></g><path fill="#a8a8a8" d="M 390.976562 885.007812 L 614.597656 885.007812 C 621.929688 885.007812 628.082031 879.992188 629.984375 873.25 C 626.820312 859.320312 611.386719 854.035156 579.476562 822.914062 C 535.117188 779.667969 546.253906 653.089844 551.171875 612.484375 C 551.6875 608.410156 552.085938 605.222656 552.378906 603.050781 C 552.726562 600.902344 552.898438 590.082031 552.898438 590.082031 L 465.664062 590.082031 C 470.753906 626.117188 487.671875 773.097656 433.484375 821.753906 C 398.707031 853.070312 380.703125 860.011719 375.515625 873.003906 C 377.34375 879.871094 383.566406 885.007812 390.976562 885.007812 " fill-opacity="1" fill-rule="nonzero"/><path fill="#e1e1e1" d="M 403.128906 885.007812 L 438.152344 885.007812 C 430.742188 885.007812 424.515625 879.871094 422.714844 873.003906 C 427.902344 860.011719 445.882812 853.070312 480.65625 821.753906 C 533.191406 774.605469 518.914062 635.058594 513.355469 593.714844 L 478.335938 593.714844 C 483.890625 635.058594 498.167969 774.605469 445.632812 821.753906 C 410.859375 853.070312 392.878906 860.011719 387.691406 873.003906 C 389.496094 879.871094 395.71875 885.007812 403.128906 885.007812 " fill-opacity="1" fill-rule="nonzero"/><path fill="#76868f" d="M 601.605469 821.753906 C 549.933594 775.273438 562.902344 639.308594 568.632812 595.691406 C 569.25 591.292969 569.71875 587.886719 570.039062 585.5625 C 570.433594 583.242188 570.632812 582.03125 570.632812 582.03125 L 464.453125 582.03125 C 464.453125 582.03125 464.949219 584.921875 465.664062 590.082031 L 552.898438 590.082031 C 552.898438 590.082031 552.726562 600.902344 552.378906 603.050781 C 552.085938 605.222656 551.6875 608.410156 551.171875 612.484375 C 546.253906 653.089844 535.117188 779.667969 579.476562 822.914062 C 611.386719 854.035156 626.820312 859.320312 629.984375 873.25 C 628.082031 879.992188 621.929688 885.007812 614.597656 885.007812 L 390.976562 885.007812 C 383.566406 885.007812 377.34375 879.871094 375.515625 873.003906 C 374.257812 876.214844 373.710938 879.796875 373.933594 884.191406 C 374.007812 885.277344 374.058594 886.367188 374.207031 887.601562 C 374.601562 890.984375 375.390625 894.863281 376.453125 899.355469 L 658.65625 899.355469 C 667.871094 861.050781 653.148438 868.0625 601.605469 821.753906 " fill-opacity="1" fill-rule="nonzero"/><path fill="#76868f" d="M 577.769531 529.546875 L 457.339844 529.546875 C 453.710938 529.546875 450.203125 530.066406 446.84375 530.980469 L 573.128906 530.980469 C 587.847656 530.980469 599.875 543.007812 599.875 557.703125 L 599.875 566.964844 C 599.875 581.660156 587.847656 593.714844 573.128906 593.714844 L 440.941406 593.714844 C 430.421875 593.714844 421.332031 587.492188 416.984375 578.597656 C 420.6875 597.46875 437.410156 611.84375 457.339844 611.84375 L 577.769531 611.84375 C 600.394531 611.84375 618.917969 593.320312 618.917969 570.695312 C 618.917969 548.046875 600.394531 529.546875 577.769531 529.546875 " fill-opacity="1" fill-rule="nonzero"/><path fill="#a8a8a8" d="M 440.941406 593.714844 L 573.128906 593.714844 C 587.847656 593.714844 599.875 581.660156 599.875 566.964844 L 599.875 557.703125 C 599.875 543.007812 587.847656 530.980469 573.128906 530.980469 L 446.84375 530.980469 C 429.257812 535.648438 416.195312 551.703125 416.195312 570.695312 C 416.195312 573.386719 416.488281 576.03125 416.984375 578.597656 C 421.332031 587.492188 430.421875 593.714844 440.941406 593.714844 " fill-opacity="1" fill-rule="nonzero"/><path fill="#e1e1e1" d="M 464.15625 578.597656 C 463.664062 576.03125 463.367188 573.386719 463.367188 570.695312 C 463.367188 551.703125 476.433594 535.648438 494.019531 530.980469 L 458.996094 530.980469 C 441.433594 535.648438 428.371094 551.703125 428.371094 570.695312 C 428.371094 573.386719 428.640625 576.03125 429.136719 578.597656 C 433.507812 587.492188 442.570312 593.714844 453.09375 593.714844 L 478.335938 593.714844 C 478.234375 592.972656 478.136719 592.332031 478.0625 591.640625 C 471.988281 589.121094 467.046875 584.476562 464.15625 578.597656 " fill-opacity="1" fill-rule="nonzero"/><path fill="#a8a8a8" d="M 291.195312 969.082031 L 699.976562 969.082031 C 713.511719 969.082031 726.207031 961.054688 730.777344 948.332031 C 737.273438 930.328125 732.554688 913.015625 721.886719 901.160156 C 716.847656 899.824219 711.609375 899.035156 706.175781 899.035156 L 328.933594 899.035156 C 304.976562 899.035156 284.179688 913.015625 274.128906 933.195312 L 274.128906 951.988281 C 274.128906 961.398438 281.808594 969.082031 291.195312 969.082031 " fill-opacity="1" fill-rule="nonzero"/><path fill="#e1e1e1" d="M 340.269531 935.6875 L 340.269531 933.195312 C 349.507812 906.839844 371.144531 899.035156 395.101562 899.035156 L 360.078125 899.035156 C 336.121094 899.035156 313.597656 905.039062 305.25 933.195312 L 305.050781 942.75 C 305.050781 961.128906 307.621094 969.082031 325.996094 969.082031 L 373.664062 969.082031 C 355.3125 969.082031 340.269531 954.039062 340.269531 935.6875 " fill-opacity="1" fill-rule="nonzero"/><path fill="#a8a8a8" d="M 829.175781 3.199219 L 205.960938 3.199219 C 186.472656 3.199219 170.542969 17.871094 170.542969 35.777344 L 170.542969 42.988281 C 170.542969 45.804688 170.988281 48.546875 171.730469 51.164062 C 175.679688 65.167969 189.535156 75.589844 205.960938 75.589844 L 829.175781 75.589844 C 848.636719 75.589844 864.566406 60.921875 864.566406 42.988281 L 864.566406 35.777344 C 864.566406 17.871094 848.636719 3.199219 829.175781 3.199219 " fill-opacity="1" fill-rule="nonzero"/><path fill="#76868f" d="M 836.609375 114.246094 C 836.609375 369.773438 700.59375 564.078125 517.554688 564.078125 C 464.183594 564.078125 414.8125 547.355469 371.613281 517.59375 C 403.671875 530.882812 440.71875 538.144531 483.398438 538.144531 C 648.0625 538.144531 770.46875 363.304688 770.46875 133.410156 C 770.46875 113.378906 754.09375 97.003906 734.113281 97.003906 L 322.882812 96.042969 L 249.578125 95.84375 L 198.75 95.71875 C 198.996094 87.941406 199.316406 80.109375 199.761719 72.40625 L 248.269531 72.527344 L 322.488281 72.652344 L 835.398438 73.863281 C 836.214844 87.125 836.609375 100.585938 836.609375 114.246094 " fill-opacity="1" fill-rule="nonzero"/><path fill="#a8a8a8" d="M 770.46875 133.386719 C 770.46875 113.40625 754.117188 97.003906 734.136719 96.957031 L 198.773438 95.769531 C 198.625 101.894531 198.503906 108.046875 198.503906 114.21875 C 198.503906 295.183594 266.769531 445.328125 371.613281 517.617188 C 403.695312 530.882812 440.742188 538.117188 483.375 538.117188 C 648.0625 538.117188 770.46875 363.277344 770.46875 133.386719 " fill-opacity="1" fill-rule="nonzero"/><path fill="#e1e1e1" d="M 325.894531 3.175781 C 323.699219 29.355469 322.488281 43.558594 322.488281 71.023438 L 322.488281 72.652344 L 248.269531 72.527344 C 247.703125 58.550781 247.378906 44.398438 247.378906 30.097656 C 247.378906 16.761719 247.703125 16.265625 248.195312 3.175781 L 325.894531 3.175781 " fill-opacity="1" fill-rule="nonzero"/><path fill="#e1e1e1" d="M 471.148438 516.011719 C 356.941406 500.007812 264.695312 322.773438 249.578125 95.84375 L 322.882812 96.042969 C 327.675781 285.996094 387.542969 446.785156 471.148438 516.011719 " fill-opacity="1" fill-rule="nonzero"/></svg>